HIERARCHY
ROOT Hips
{
  OFFSET 0.379263 16.6519 0.216258
  CHANNELS 6 Xposition Yposition Zposition Zrotation Xrotation Yrotation
  JOINT LHipJoint
  {
    OFFSET 0 0 0
    CHANNELS 6 Xposition Yposition Zposition Zrotation Xrotation Yrotation
    JOINT LeftUpLeg
    {
      OFFSET 1.36306 -1.79463 0.83929
      CHANNELS 6 Xposition Yposition Zposition Zrotation Xrotation Yrotation
      JOINT LeftLeg
      {
        OFFSET 2.44811 -6.72613 0
        CHANNELS 6 Xposition Yposition Zposition Zrotation Xrotation Yrotation
        JOINT LeftFoot
        {
          OFFSET 2.5622 -7.03959 0
          CHANNELS 6 Xposition Yposition Zposition Zrotation Xrotation Yrotation
          JOINT LeftToeBase
          {
            OFFSET 0.15764 -0.43311 2.32255
            CHANNELS 6 Xposition Yposition Zposition Zrotation Xrotation Yrotation
            End Site
            {
              OFFSET 0 0 0
            }
          }
        }
      }
    }
  }
  JOINT RHipJoint
  {
    OFFSET 0 0 0
    CHANNELS 6 Xposition Yposition Zposition Zrotation Xrotation Yrotation
    JOINT RightUpLeg
    {
      OFFSET -1.30552 -1.79463 0.83929
      CHANNELS 6 Xposition Yposition Zposition Zrotation Xrotation Yrotation
      JOINT RightLeg
      {
        OFFSET -2.54253 -6.98555 0
        CHANNELS 6 Xposition Yposition Zposition Zrotation Xrotation Yrotation
        JOINT RightFoot
        {
          OFFSET -2.56826 -7.05623 0
          CHANNELS 6 Xposition Yposition Zposition Zrotation Xrotation Yrotation
          JOINT RightToeBase
          {
            OFFSET -0.16473 -0.45259 2.36315
            CHANNELS 6 Xposition Yposition Zposition Zrotation Xrotation Yrotation
            End Site
            {
              OFFSET 0 0 0
            }
          }
        }
      }
    }
  }
  JOINT LowerBack
  {
    OFFSET 0 0 0
    CHANNELS 6 Xposition Yposition Zposition Zrotation Xrotation Yrotation
    JOINT Spine
    {
      OFFSET 0.02827 2.03559 -0.19338
      CHANNELS 6 Xposition Yposition Zposition Zrotation Xrotation Yrotation
      JOINT Spine1
      {
        OFFSET 0.05672 2.04885 -0.04275
        CHANNELS 6 Xposition Yposition Zposition Zrotation Xrotation Yrotation
        JOINT Neck
        {
          OFFSET 0 0 0
          CHANNELS 6 Xposition Yposition Zposition Zrotation Xrotation Yrotation
          JOINT Neck1
          {
            OFFSET -0.05417 1.74624 0.17202
            CHANNELS 6 Xposition Yposition Zposition Zrotation Xrotation Yrotation
            JOINT Head
            {
              OFFSET 0.10407 1.76136 -0.12397
              CHANNELS 6 Xposition Yposition Zposition Zrotation Xrotation Yrotation
              End Site
              {
                OFFSET 0 0 0
              }
            }
          }
        }
        JOINT LeftShoulder
        {
          OFFSET 0 0 0
          CHANNELS 6 Xposition Yposition Zposition Zrotation Xrotation Yrotation
          JOINT LeftArm
          {
            OFFSET 3.36241 1.20089 -0.31121
            CHANNELS 6 Xposition Yposition Zposition Zrotation Xrotation Yrotation
            JOINT LeftForeArm
            {
              OFFSET 4.983 0 0
              CHANNELS 6 Xposition Yposition Zposition Zrotation Xrotation Yrotation
              JOINT LeftHand
              {
                OFFSET 3.48356 0 0
                CHANNELS 6 Xposition Yposition Zposition Zrotation Xrotation Yrotation
                JOINT LeftFingerBase
                {
                  OFFSET 0 0 0
                  CHANNELS 6 Xposition Yposition Zposition Zrotation Xrotation Yrotation
                  JOINT LeftHandIndex1
                  {
                    OFFSET 0.71526 0 0
                    CHANNELS 6 Xposition Yposition Zposition Zrotation Xrotation Yrotation
                    End Site
                    {
                      OFFSET 0 0 0
                    }
                  }
                }
                JOINT LThumb
                {
                  OFFSET 0 0 0
                  CHANNELS 6 Xposition Yposition Zposition Zrotation Xrotation Yrotation
                  End Site
                  {
                    OFFSET 0 0 0
                  }
                }
              }
            }
          }
        }
        JOINT RightShoulder
        {
          OFFSET 0 0 0
          CHANNELS 6 Xposition Yposition Zposition Zrotation Xrotation Yrotation
          JOINT RightArm
          {
            OFFSET -3.1366 1.37405 -0.40465
            CHANNELS 6 Xposition Yposition Zposition Zrotation Xrotation Yrotation
            JOINT RightForeArm
            {
              OFFSET -5.2419 0 0
              CHANNELS 6 Xposition Yposition Zposition Zrotation Xrotation Yrotation
              JOINT RightHand
              {
                OFFSET -3.44417 0 0
                CHANNELS 6 Xposition Yposition Zposition Zrotation Xrotation Yrotation
                JOINT RightFingerBase
                {
                  OFFSET 0 0 0
                  CHANNELS 6 Xposition Yposition Zposition Zrotation Xrotation Yrotation
                  JOINT RightHandIndex1
                  {
                    OFFSET -0.62253 0 0
                    CHANNELS 6 Xposition Yposition Zposition Zrotation Xrotation Yrotation
                    End Site
                    {
                      OFFSET 0 0 0
                    }
                  }
                }
                JOINT RThumb
                {
                  OFFSET 0 0 0
                  CHANNELS 6 Xposition Yposition Zposition Zrotation Xrotation Yrotation
                  End Site
                  {
                    OFFSET 0 0 0
                  }
                }
              }
            }
          }
        }
      }
    }
  }
}
MOTION
Frames:	4
Frame Time:	0.00833333
1.55905 16.6231 0.0123547 -1.69921 10.3816 3.15754 0 0 0 -0.299681 5.35791 18.0368 1.36306 -1.79463 0.83929 -28.321 -50.7702 -0.901442 2.44811 -6.72613 0 11.5233 43.5364 5.31232 2.5622 -7.03959 4.44089e-016 3.74428 -18.0112 -9.65122 0.15764 -0.43311 2.32255 -1.59028e-015 -1.59028e-015 6.36111e-015 0 0 0 -8.85582 0.425549 -20.6242 -1.30552 -1.79463 0.83929 46.2357 -29.3477 24.021 -2.54253 -6.98555 0 -9.49832 54.6675 -13.9675 -2.56826 -7.05623 6.10623e-016 9.87159 -1.82791 7.16397 -0.16473 -0.45259 2.36315 -0.00601129 -0.0595857 0.0200564 0 0 0 -1.93281 -2.12354 0.12108 0.02827 2.03559 -0.19338 11.0809 27.8785 0.0762124 0.05672 2.04885 -0.04275 -3.94739 -3.87488 1.07478 0 0 0 -1.34374 -9.52655 -0.171285 -0.05417 1.74624 0.17202 2.15772 27.2908 -1.3928 0.10407 1.76136 -0.12397 4.23944 -10.8848 -0.0382079 0 0 0 16.3778 0.389782 25.6379 3.36241 1.20089 -0.31121 -89.8332 2.2865 -15.2426 4.983 1.77636e-015 0 -11.318 7.75004 -12.7499 3.48356 -1.77636e-015 0 -14.6611 1.90901 -6.77581 0 0 0 -0.121028 -1.13371e-006 -1.14814 0.71526 0 -8.88178e-016 -1.78906e-015 1.59028e-015 -0 0 0 0 -1.19271e-015 0 2.38542e-015 0 0 0 -26.016 -1.25105 -30.1934 -3.1366 1.37405 -0.40465 105.9 6.03147 14.4645 -5.2419 0 -1.11022e-016 7.93249 5.20978 5.64677 -3.44417 4.44089e-016 0 12.7897 3.24148 11.7 0 0 0 0.388195 -3.8339e-006 2.4941 -0.62253 -3.33067e-016 8.88178e-016 -4.17485e-006 2.99803e-006 3.04112e-006 0 0 0 -2.43511e-015 7.95139e-016 1.59028e-015 
1.56191 16.6281 0.00813469 -1.70545 10.3901 3.14694 0 0 0 -0.299681 5.35791 18.0368 1.36306 -1.79463 0.83929 -28.3079 -50.7344 -0.858358 2.44811 -6.72613 0 11.4944 43.4487 5.28429 2.5622 -7.03959 0 3.77008 -18.1135 -9.68065 0.15764 -0.43311 2.32255 -7.95139e-016 1.59028e-015 -9.54166e-015 0 0 0 -8.85582 0.425549 -20.6242 -1.30552 -1.79463 0.83929 46.2296 -29.337 24.0093 -2.54253 -6.98555 8.88178e-016 -9.52361 54.5891 -13.9107 -2.56826 -7.05623 -3.33067e-016 9.86827 -1.7702 7.13643 -0.16473 -0.45259 2.36315 -0.00603221 -0.0597809 0.0200951 0 0 0 -1.93281 -2.12354 0.12108 0.02827 2.03559 -0.19338 11.1296 27.9748 0.0746866 0.05672 2.04885 -0.04275 -3.95702 -3.86031 1.08202 0 0 0 -1.34117 -9.50212 -0.170007 -0.05417 1.74624 0.17202 2.16032 27.3152 -1.39299 0.10407 1.76136 -0.12397 4.2401 -10.9206 -0.030317 0 0 0 16.3192 0.427723 25.6294 3.36241 1.20089 -0.31121 -89.631 2.37944 -15.1196 4.983 0 -2.22045e-016 -11.611 7.74605 -13.597 3.48356 0 -2.22045e-016 -14.531 1.71 -6.27117 0 0 0 -0.121028 -1.13371e-006 -1.14814 0.71526 0 0 -5.96354e-016 0 3.18055e-015 0 0 0 -7.95139e-016 1.59028e-015 -2.38542e-015 0 0 0 -26.0122 -1.22307 -30.1258 -3.1366 1.37405 -0.40465 105.871 6.01467 14.4709 -5.2419 8.88178e-016 2.22045e-016 7.93686 5.13812 5.66661 -3.44417 -4.44089e-016 0 12.7406 3.23608 11.6929 0 0 0 0.388195 -3.8339e-006 2.4941 -0.62253 -2.22045e-016 0 -4.17485e-006 2.99803e-006 3.04112e-006 0 0 0 -2.20695e-032 -7.95139e-016 -1.59028e-015 
1.56458 16.6334 0.00437175 -1.7118 10.3967 3.13485 0 0 0 -0.299681 5.35791 18.0368 1.36306 -1.79463 0.83929 -28.2879 -50.6933 -0.81009 2.44811 -6.72613 0 11.4646 43.3561 5.2568 2.5622 -7.03959 -8.88178e-016 3.79354 -18.2151 -9.71038 0.15764 -0.43311 2.32255 -3.97569e-015 -1.59028e-015 -0 0 0 0 -8.85582 0.425549 -20.6242 -1.30552 -1.79463 0.83929 46.2224 -29.3221 23.9948 -2.54253 -6.98555 -8.88178e-016 -9.54976 54.5082 -13.8517 -2.56826 -7.05623 -5.55112e-017 9.86372 -1.71271 7.1089 -0.16473 -0.45259 2.36315 -0.00605307 -0.0599757 0.0201322 0 0 0 -1.93281 -2.12354 0.12108 0.02827 2.03559 -0.19338 11.1788 28.0804 0.0710244 0.05672 2.04885 -0.04275 -3.96561 -3.84467 1.08849 0 0 0 -1.33744 -9.47404 -0.168103 -0.05417 1.74624 0.17202 2.16401 27.3432 -1.39308 0.10407 1.76136 -0.12397 4.23801 -10.9589 -0.0200194 0 0 0 16.2631 0.468016 25.6188 3.36241 1.20089 -0.31121 -89.502 2.46842 -15.1627 4.983 -1.77636e-015 0 -11.8103 7.7153 -14.1296 3.48356 0 0 -14.4546 1.57439 -5.91701 0 0 0 -0.121028 -1.13371e-006 -1.14814 0.71526 0 4.44089e-016 -1.59028e-015 3.18055e-015 1.59028e-015 0 0 0 5.96354e-016 0 -0 0 0 0 -26.0088 -1.19159 -30.0592 -3.1366 1.37405 -0.40465 105.843 6.0026 14.4838 -5.2419 8.88178e-016 1.11022e-016 7.94116 5.06782 5.68614 -3.44417 -4.44089e-016 0 12.6928 3.23092 11.6862 0 0 0 0.388195 -3.8339e-006 2.4941 -0.62253 0 8.88178e-016 -4.17485e-006 2.99803e-006 3.04112e-006 0 0 0 -4.96962e-016 7.95139e-016 -0 
1.56712 16.6389 0.00118491 -1.7184 10.4014 3.12109 0 0 0 -0.299681 5.35791 18.0368 1.36306 -1.79463 0.83929 -28.261 -50.647 -0.756601 2.44811 -6.72613 1.77636e-015 11.4344 43.2596 5.23016 2.5622 -7.03959 4.44089e-016 3.81419 -18.3172 -9.74082 0.15764 -0.43311 2.32255 1.59028e-015 1.59028e-015 -0 0 0 0 -8.85582 0.425549 -20.6242 -1.30552 -1.79463 0.83929 46.2126 -29.3018 23.976 -2.54253 -6.98555 0 -9.57654 54.424 -13.7903 -2.56826 -7.05623 1.66533e-016 9.85822 -1.65614 7.08172 -0.16473 -0.45259 2.36315 -0.00607387 -0.06017 0.0201679 0 0 0 -1.93281 -2.12354 0.12108 0.02827 2.03559 -0.19338 11.2273 28.1842 0.0666911 0.05672 2.04885 -0.04275 -3.97349 -3.8301 1.09427 0 0 0 -1.33278 -9.44469 -0.165747 -0.05417 1.74624 0.17202 2.16853 27.3726 -1.39302 0.10407 1.76136 -0.12397 4.2343 -10.9888 -0.00814333 0 0 0 16.2097 0.505694 25.6082 3.36241 1.20089 -0.31121 -89.4267 2.54681 -15.3015 4.983 -1.77636e-015 -4.44089e-016 -11.9335 7.67353 -14.4282 3.48356 0 0 -14.4211 1.4887 -5.68614 0 0 0 -0.121028 -1.13371e-006 -1.14814 0.71526 0 -4.44089e-016 -0 0 1.59028e-015 0 0 0 -7.95139e-016 0 -0 0 0 0 -26.006 -1.16249 -29.9946 -3.1366 1.37405 -0.40465 105.817 5.99063 14.4946 -5.2419 0 2.22045e-016 7.94542 4.99839 5.70544 -3.44417 0 0 12.6474 3.22643 11.6809 0 0 0 0.388195 -3.8339e-006 2.4941 -0.62253 5.55112e-017 0 -4.17485e-006 2.99803e-006 3.04112e-006 0 0 0 -6.95746e-016 0 -0 
